<svg xmlns="http://www.w3.org/2000/svg" id="svg2" version="1.1" viewBox="0 0 126.00118 216.23788" height="216.238" width="126.001"><title id="title4">logo-short</title><g transform="translate(-87 -41.881)" id="logo" fill="none" fill-rule="evenodd" stroke="none" stroke-width="1"><g id="logo-short" stroke="#2196f3" stroke-width="16" stroke-linecap="round" stroke-opacity="1"><path id="inner-path-01" d="M135 57.995v126s0 20-20 20-20-20-20-20 0-14 14-20 93.158-32.062 93.158-32.062c1.57-.518 2.842-2.281 2.842-3.932V86.99c0-1.654-1.274-2.57-2.848-2.045l-18.305 6.102c-1.572.524-2.847 2.302-2.847 3.95v97.999c0 1.657 1.24 2.483 2.776 1.843l18.447-7.686c1.534-.639 2.777-2.508 2.777-4.153v-25.004"/><path id="inner-path-02" d="M157 49.995v200.01" fill="#ff2a2a"/></g></g></svg>