<?xml version="1.0" encoding="UTF-8" standalone="no"?>
<svg
   xmlns:sketch="http://www.bohemiancoding.com/sketch/ns"
   xmlns:dc="http://purl.org/dc/elements/1.1/"
   xmlns:cc="http://creativecommons.org/ns#"
   xmlns:rdf="http://www.w3.org/1999/02/22-rdf-syntax-ns#"
   xmlns:svg="http://www.w3.org/2000/svg"
   xmlns="http://www.w3.org/2000/svg"
   id="svg2"
   version="1.1"
   viewBox="0 0 126.00118 216.23788"
   height="216.23788"
   width="126.00118">
  <metadata
     id="metadata17">
    <rdf:RDF>
      <cc:Work
         rdf:about="">
        <dc:format>image/svg+xml</dc:format>
        <dc:type
           rdf:resource="http://purl.org/dc/dcmitype/StillImage" />
        <dc:title>logo-short</dc:title>
      </cc:Work>
    </rdf:RDF>
  </metadata>
  <!-- Generator: Sketch 3.3.1 (12005) - http://www.bohemiancoding.com/sketch -->
  <title
     id="title4">logo-short</title>
  <desc
     id="desc6">Created with Sketch.</desc>
  <defs
     id="defs8" />
  <g
     transform="translate(-86.999405,-41.88106)"
     style="fill:none;fill-rule:evenodd;stroke:none;stroke-width:1"
     sketch:type="MSPage"
     id="logo">
    <g
       style="stroke:#2d333a;stroke-width:16;stroke-linecap:round"
       sketch:type="MSLayerGroup"
       id="logo-short">
      <path
         style="stroke:#2196f3;stroke-opacity:1"
         sketch:type="MSShapeGroup"
         id="inner-path-01"
         d="m 134.9998,57.995 -1e-5,126 c 0,0 0,20 -20,20 -19.999996,0 -19.999996,-20 -19.999996,-20 0,0 0,-14 13.999996,-20 14,-6 93.15806,-32.06232 93.15806,-32.06232 1.56956,-0.51787 2.84194,-2.28107 2.84194,-3.93129 l 0,-41.01278 c 0,-1.65332 -1.27339,-2.569144 -2.84736,-2.044489 l -18.30527,6.101759 c -1.57256,0.52418 -2.84737,2.3021 -2.84737,3.94948 l 0,97.99928 c 0,1.65705 1.23981,2.48377 2.77656,1.84346 l 18.44689,-7.6862 c 1.53345,-0.63894 2.77655,-2.5074 2.77655,-4.15339 l 0,-25.00351" />
      <path
         style="fill:#ff2a2a;stroke:#2196f3;stroke-opacity:1"
         sketch:type="MSShapeGroup"
         id="inner-path-02"
         d="m 156.99979,49.995 0,71.01695 0,128.99305" />
    </g>
  </g>
</svg>
